<svg width="180" height="227" viewBox="0 0 180 227" fill="none" xmlns="http://www.w3.org/2000/svg">
<path d="M139.154 99.1208C113.094 96.8908 161.254 35.3208 113.484 8.39082C86.634 -6.91918 52.664 0.620812 33.754 15.7908C24.284 23.0208 18.754 30.1408 13.134 40.5408C12.134 42.4908 8.25403 51.1408 7.41403 53.5408C-0.885967 76.7208 -2.31601 105.921 3.62399 131.941C12.474 170.651 37.514 209.941 73.004 220.861C116.354 233.741 143.694 222.041 157.614 202.651C175.824 180.161 203.644 104.631 139.154 99.1208Z" fill="url(#paint0_linear_5_29104)"/>
<path d="M77.2101 208.894L64.5059 215.904L65.1049 216.989L77.8092 209.979L77.2101 208.894Z" fill="#16345A"/>
<path d="M88.1184 211.413L76.6875 220.35L77.4513 221.327L88.8821 212.39L88.1184 211.413Z" fill="#16345A"/>
<path d="M98.7546 212.321L89.7246 223.651L90.6946 224.431L99.7346 213.101L98.7546 212.321Z" fill="#16345A"/>
<path d="M110.155 212.331L104.465 225.651L105.605 226.141L111.295 212.821L110.155 212.331Z" fill="#16345A"/>
<path d="M121.484 210.29L118.764 224.47L119.984 224.72L122.704 210.53L121.484 210.29Z" fill="#16345A"/>
<path d="M132.324 206.271L131.094 206.471L133.494 220.711L134.714 220.521L132.324 206.271Z" fill="#16345A"/>
<path d="M143.195 199.722L141.975 199.982L145.105 214.082L146.325 213.822L143.195 199.722Z" fill="#16345A"/>
<path d="M152.423 191.771L151.193 191.961L153.463 206.231L154.693 206.041L152.423 191.771Z" fill="#16345A"/>
<path d="M70.1922 205.071L57.8711 210.49L58.3703 211.625L70.6914 206.206L70.1922 205.071Z" fill="#16345A"/>
<path d="M64.0058 197.378L51.2188 201.551L51.6031 202.729L64.3902 198.556L64.0058 197.378Z" fill="#16345A"/>
<path d="M56.0481 196.671L42.0391 200.451L42.3621 201.648L56.3711 197.868L56.0481 196.671Z" fill="#16345A"/>
<path d="M52.009 191.685L38 195.465L38.323 196.662L52.332 192.882L52.009 191.685Z" fill="#16345A"/>
<path d="M49.522 186.278L34.3164 189.719L34.5901 190.928L49.7956 187.488L49.522 186.278Z" fill="#16345A"/>
<path d="M43.0263 178.222L27.2832 183.794L27.6969 184.962L43.44 179.391L43.0263 178.222Z" fill="#16345A"/>
<path d="M39.6028 172.776L23.5234 177.287L23.8584 178.481L39.9377 173.97L39.6028 172.776Z" fill="#16345A"/>
<path d="M39.7312 165.608L24.1504 170.315L24.51 171.505L40.0908 166.799L39.7312 165.608Z" fill="#16345A"/>
<path d="M33.5478 161.944L17.9941 166.581L18.3484 167.769L33.902 163.133L33.5478 161.944Z" fill="#16345A"/>
<path d="M31.0352 157.196L15.4824 161.836L15.8369 163.024L31.3897 158.385L31.0352 157.196Z" fill="#16345A"/>
<path d="M26.9172 153.47L12.9082 157.25L13.2312 158.447L27.2402 154.667L26.9172 153.47Z" fill="#16345A"/>
<path d="M24.6228 147.771L11.8086 151.89L12.1881 153.07L25.0023 148.951L24.6228 147.771Z" fill="#16345A"/>
<path d="M24.8712 142.483L9.31836 147.123L9.67282 148.311L25.2256 143.672L24.8712 142.483Z" fill="#16345A"/>
<path d="M22.5953 136.708L8.24414 141.686L8.6505 142.857L23.0017 137.88L22.5953 136.708Z" fill="#16345A"/>
<path d="M20.0598 132.087L6.05078 135.867L6.3738 137.064L20.3828 133.284L20.0598 132.087Z" fill="#16345A"/>
<path d="M18.3379 119.942L2.78516 124.582L3.13961 125.77L18.6924 121.131L18.3379 119.942Z" fill="#16345A"/>
<path d="M19.3673 125.409L3.81445 130.049L4.16891 131.237L19.7217 126.597L19.3673 125.409Z" fill="#16345A"/>
<path d="M16.9543 115.71L2.94531 119.49L3.26834 120.687L17.2774 116.907L16.9543 115.71Z" fill="#16345A"/>
<path d="M17.4386 109.466L2.23242 112.904L2.50587 114.113L17.712 110.675L17.4386 109.466Z" fill="#16345A"/>
<path d="M17.2667 105.522L2.06055 108.96L2.334 110.17L17.5402 106.732L17.2667 105.522Z" fill="#16345A"/>
<path d="M16.8596 97.6455L0.966797 103.48L1.39415 104.644L17.287 98.8095L16.8596 97.6455Z" fill="#16345A"/>
<path d="M17.1016 92.4209L1.54883 97.0604L1.90329 98.2486L17.4561 93.6092L17.1016 92.4209Z" fill="#16345A"/>
<path d="M18.7353 86.5713L1.64648 92.0645L2.02596 93.245L19.1148 87.7518L18.7353 86.5713Z" fill="#16345A"/>
<path d="M17.37 82.2959L1.81641 86.9326L2.17066 88.1209L17.7243 83.4842L17.37 82.2959Z" fill="#16345A"/>
<path d="M19.0693 76.3018L1.98047 81.795L2.35994 82.9755L19.4488 77.4823L19.0693 76.3018Z" fill="#16345A"/>
<path d="M17.7481 71.9013L2.19531 76.5408L2.54979 77.7291L18.1025 73.0896L17.7481 71.9013Z" fill="#16345A"/>
<path d="M19.7911 64.7178L4.23828 69.3572L4.59276 70.5455L20.1456 65.9061L19.7911 64.7178Z" fill="#16345A"/>
<path d="M21.784 57.6826L6.23047 62.3193L6.58472 63.5076L22.1383 58.8709L21.784 57.6826Z" fill="#16345A"/>
<path d="M24.5606 47.9638L9.00781 52.6033L9.36227 53.7915L24.915 49.1521L24.5606 47.9638Z" fill="#16345A"/>
<path d="M26.3043 41.5429L12.0938 44.4755L12.3444 45.6899L26.5549 42.7574L26.3043 41.5429Z" fill="#16345A"/>
<path d="M29.231 36.3379L14.3594 38.5817L14.5444 39.8078L29.416 37.564L29.231 36.3379Z" fill="#16345A"/>
<path d="M34.4364 30.8711L19.9531 31.7518L20.0284 32.9895L34.5116 32.1088L34.4364 30.8711Z" fill="#16345A"/>
<path d="M41.2245 21.7051L27.3145 21.9833L27.3393 23.2233L41.2493 22.9451L41.2245 21.7051Z" fill="#16345A"/>
<path d="M32.4047 18.623L32.332 19.8609L46.2181 20.6762L46.2908 19.4383L32.4047 18.623Z" fill="#16345A"/>
<path d="M42.1039 12.0019L42.0312 13.2399L55.9173 14.0551L55.99 12.8172L42.1039 12.0019Z" fill="#16345A"/>
<path d="M54.3403 6.83007L54.2676 8.06793L68.1537 8.88319L68.2263 7.64533L54.3403 6.83007Z" fill="#16345A"/>
<path d="M70.3559 2.74804L70.2832 3.98596L84.1693 4.80122L84.242 3.5633L70.3559 2.74804Z" fill="#16345A"/>
<path d="M176.195 92.2909C164.635 42.1409 130.115 4.88094 92.9346 3.35094C78.7846 2.77094 74.3246 4.42096 60.7946 9.46096C26.0446 26.461 8.35467 74.951 20.3547 127.001C29.5647 167.001 53.7246 199.371 82.0146 212.681C86.4449 214.518 90.9677 216.123 95.5646 217.491C103.172 219.397 111.084 219.759 118.833 218.557C126.582 217.355 134.013 214.612 140.685 210.491C145.234 207.253 149.576 203.732 153.685 199.951C161.506 191.609 167.62 181.819 171.685 171.131C172.265 169.671 175.595 159.401 176.265 156.681C181.105 137.161 181.385 114.821 176.195 92.2909Z" fill="url(#paint1_linear_5_29104)"/>
<path fill-rule="evenodd" clip-rule="evenodd" d="M71.0051 20.5811C68.4951 21.1011 68.8152 28.3411 66.7252 26.6611C64.9152 25.2111 60.6652 14.7511 58.7252 15.6611C24.7752 31.2511 7.98517 76.8011 20.4052 126.061C29.9552 163.901 54.0951 194.741 82.0551 207.641C84.1651 208.641 87.6252 205.161 89.7752 205.931C92.0852 206.751 93.0851 211.771 95.4351 212.341C104.192 214.53 113.326 214.742 122.175 212.961C128.339 211.704 134.256 209.452 139.695 206.291C141.765 205.081 136.125 199.211 138.045 197.761C140.395 196.001 150.265 198.601 152.375 196.501C159.938 188.776 165.845 179.588 169.735 169.501C170.285 168.121 166.955 159.241 166.825 154.831C166.825 152.881 169.625 153.881 169.825 153.251C170.625 150.801 173.435 158.481 174.055 155.921C178.535 137.571 178.535 116.491 173.155 95.1811C161.155 47.7311 126.735 13.5011 90.2551 10.2611C85.1351 9.81112 92.8652 14.7911 87.7252 15.6011C86.8252 15.7611 71.9351 20.3911 71.0051 20.5811Z" fill="url(#paint2_linear_5_29104)"/>
<path fill-rule="evenodd" clip-rule="evenodd" d="M57.2349 14.371C23.2949 29.961 6.49495 75.521 18.9249 124.771C28.4649 162.621 52.605 193.451 80.565 206.351C82.675 207.351 86.1349 203.871 88.2949 204.641C90.4549 205.411 91.605 210.491 93.945 211.061C102.705 213.252 111.844 213.46 120.695 211.671C126.854 210.415 132.765 208.158 138.195 204.991C140.275 203.791 134.625 197.911 136.555 196.471C138.895 194.701 148.765 197.301 150.875 195.201C158.438 187.476 164.345 178.288 168.235 168.201C168.785 166.831 165.455 157.951 165.335 153.531C165.275 151.581 168.125 152.581 168.335 151.951C169.125 149.501 171.945 157.181 172.565 154.621C177.035 136.271 177.035 115.201 171.665 93.8811C159.665 46.4311 125.235 12.2011 88.755 8.96105C83.635 8.55105 69.7049 9.55103 57.2349 14.371Z" fill="url(#paint3_linear_5_29104)"/>
<path fill-rule="evenodd" clip-rule="evenodd" d="M58.7349 15.6407C24.7849 31.2307 7.99494 76.7807 20.4149 126.041C29.9649 163.881 54.1049 194.721 82.0649 207.621C84.1749 208.621 93.0649 211.751 95.4449 212.321C104.202 214.51 113.336 214.722 122.185 212.941C128.344 211.689 134.258 209.443 139.695 206.291C144.125 203.3 148.36 200.03 152.375 196.501C159.938 188.775 165.845 179.588 169.735 169.501C170.285 168.121 173.435 158.501 174.055 155.921C178.535 137.571 178.535 116.491 173.155 95.1807C161.155 47.7307 126.735 13.5007 90.2549 10.2607C85.1349 9.82073 71.5349 10.4007 58.7349 15.6407Z" fill="url(#paint4_linear_5_29104)"/>
<path d="M164.964 94.8112C153.484 44.5612 115.144 11.0711 77.8436 19.5911C40.5436 28.1111 19.9736 74.5912 31.4536 124.811C42.9336 175.031 81.7936 211.281 119.084 202.811C156.374 194.341 176.444 145.061 164.964 94.8112Z" fill="url(#paint5_linear_5_29104)"/>
<path d="M89.5652 20.2907C122.195 20.2907 153.085 51.8307 163.015 95.2907C168.505 119.291 166.895 143.631 158.475 163.701C150.055 183.771 135.925 196.901 118.645 200.851C115.167 201.641 111.612 202.04 108.045 202.041C92.3452 202.041 76.1552 194.231 62.4552 180.041C48.7552 165.851 38.3352 145.991 33.4552 124.401C28.0052 100.531 29.7052 76.7407 38.2452 57.4007C46.6852 38.2807 60.9252 25.5607 78.3452 21.5807C82.0259 20.7367 85.7889 20.304 89.5652 20.2907ZM89.5652 18.2907C85.6155 18.2829 81.6775 18.719 77.8252 19.5907C40.5352 28.1207 19.9552 74.5907 31.4352 124.811C41.7852 170.101 74.4352 204.001 108.025 204.001C111.727 204.001 115.417 203.585 119.025 202.761C156.315 194.231 176.385 145.061 164.905 94.7607C154.625 49.7607 122.815 18.2207 89.5052 18.2207L89.5652 18.2907Z" fill="url(#paint6_linear_5_29104)"/>
<path d="M88.0237 21.131C120.654 21.131 151.544 52.6611 161.474 96.1311C166.964 120.131 165.354 144.461 156.934 164.531C148.514 184.601 134.394 197.731 117.104 201.681C113.627 202.48 110.071 202.882 106.504 202.881C90.8037 202.881 74.6137 195.061 60.9137 180.881C47.2137 166.701 36.8237 146.801 31.8237 125.221C26.3737 101.351 28.0737 77.561 36.6137 58.221C45.0537 39.101 59.2937 26.381 76.7137 22.401C80.4115 21.56 84.1915 21.1341 87.9837 21.131H88.0237ZM87.9837 19.131C84.0432 19.1308 80.1152 19.5736 76.2737 20.451C38.9837 28.9711 18.3937 75.451 29.8737 125.661C40.2237 170.961 72.8237 204.861 106.464 204.861C110.182 204.86 113.889 204.441 117.514 203.611C154.804 195.091 174.864 145.911 163.384 95.6111C153.104 50.6111 121.294 19.0811 87.9837 19.0811V19.131Z" fill="url(#paint7_linear_5_29104)"/>
<path d="M144.455 74.4202C142.335 68.4802 136.905 66.9403 137.355 74.3203C139.615 87.6503 140.865 102.72 137.455 111.8C134.905 118.57 142.795 136.41 142.825 136.5C154.825 120.82 150.535 94.4402 144.455 74.4202Z" fill="url(#paint8_linear_5_29104)"/>
<path d="M144.235 73.8403C143.525 71.9703 141.855 69.7304 139.855 69.3604C143.605 86.0804 146.445 111.2 140.375 122.59C137.065 128.79 142.795 136.41 142.825 136.5C154.585 119.91 150.255 93.5203 144.235 73.8403Z" fill="url(#paint9_linear_5_29104)"/>
<path d="M63.4246 97.672C59.2646 87.142 59.4246 72.342 60.6546 59.672C60.5446 52.362 55.1546 51.8319 53.4546 57.0419C48.8246 75.0419 46.5246 100.152 59.8646 120.662C59.8746 120.592 66.5246 105.512 63.4246 97.672Z" fill="url(#paint10_linear_5_29104)"/>
<path d="M61.2837 107.501C54.2837 93.6115 55.1537 69.1914 57.6837 53.6714C55.8537 53.2014 54.2437 54.9814 53.6837 56.5414C48.8237 74.2914 46.4637 99.9514 59.8237 120.671C61.3814 118.887 62.3561 116.669 62.6171 114.315C62.8781 111.961 62.4128 109.584 61.2837 107.501Z" fill="url(#paint11_linear_5_29104)"/>
<path d="M68.3941 101.95C65.2341 91.7802 67.4541 76.9502 67.4541 76.9502C67.4541 76.9502 52.9541 86.5402 56.5441 113.44C58.1541 125.44 79.8341 134.62 79.8341 134.62C79.8341 134.62 72.1741 114.07 68.3941 101.95Z" fill="url(#paint12_linear_5_29104)"/>
<path d="M62.1341 107.171C58.9641 97.0014 67.4541 76.9814 67.4541 76.9814C67.4541 76.9814 52.9541 86.5714 56.5441 113.471C58.1541 125.471 79.8341 134.651 79.8341 134.651C79.8341 134.651 65.9041 119.291 62.1341 107.171Z" fill="url(#paint13_linear_5_29104)"/>
<path d="M131.894 89.29C131.894 89.29 135.274 105.17 132.834 114.29C129.934 125.13 123.734 143.07 123.734 143.07C123.734 143.07 145.024 142.07 145.734 130.53C147.334 104.58 131.894 89.29 131.894 89.29Z" fill="url(#paint14_linear_5_29104)"/>
<path d="M131.894 89.29C131.894 89.29 142.034 112.87 139.594 121.97C136.694 132.82 123.734 143.05 123.734 143.05C123.734 143.05 145.024 142.05 145.734 130.51C147.334 104.58 131.894 89.29 131.894 89.29Z" fill="url(#paint15_linear_5_29104)"/>
<path d="M128.874 103.042C128.384 102.372 131.794 116.182 127.424 121.442C116.584 133.672 106.854 123.652 101.634 142.722C100.256 137.784 97.6839 133.261 94.1444 129.552C88.6644 123.702 77.6944 118.132 73.5644 111.162C68.7644 103.052 71.2444 91.7219 70.9544 91.9819C66.8044 95.7719 61.6744 102.312 63.5044 114.612C65.9044 130.822 78.5744 133.052 85.2744 143.522C96.6544 161.292 92.8244 174.382 103.024 179.442C105.784 179.722 108.774 176.382 110.224 170.872C111.744 165.062 112.504 158.542 117.224 151.132C122.644 142.692 130.124 144.132 134.514 139.372C141.824 131.462 139.964 118.062 128.874 103.042Z" fill="url(#paint16_linear_5_29104)"/>
<path d="M128.875 103.04C128.355 102.4 138.925 119.04 131.525 130.36C125.265 137.73 118.955 138.54 112.525 145.71C106.205 152.71 107.415 167.25 103.035 171.61C102.935 171.71 100.865 169.23 99.5646 165.23C96.9246 157.09 95.2446 145.11 88.3146 137.78C82.8046 131.96 72.8846 123.58 69.2246 116.36C62.5646 103.19 71.2846 91.72 70.9946 91.99C66.8346 95.78 60.9046 102.52 62.7246 114.82C65.1246 131.03 78.6246 133.37 85.3146 143.82C96.6946 161.6 92.8646 174.68 103.075 179.74C105.825 180.03 108.825 176.69 110.265 171.18C111.795 165.37 112.545 158.85 117.315 151.43C122.735 142.99 130.205 144.43 134.595 139.67C141.825 131.77 141.665 118.73 128.875 103.04Z" fill="url(#paint17_linear_5_29104)"/>
<path d="M147.734 71.9616C145.614 66.0216 140.184 64.4917 140.634 71.8717C142.894 85.2017 144.144 100.262 140.734 109.352C138.184 116.112 146.074 133.962 146.104 134.052C158.064 118.372 153.824 91.9916 147.734 71.9616Z" fill="url(#paint18_linear_5_29104)"/>
<path d="M147.504 71.3911C146.804 69.5211 145.134 67.2711 143.124 66.9111C146.884 83.6311 149.724 108.751 143.654 120.131C140.344 126.331 146.074 133.961 146.104 134.051C157.824 117.461 153.534 91.0711 147.504 71.3911Z" fill="url(#paint19_linear_5_29104)"/>
<path d="M66.705 95.2208C62.545 84.6908 62.705 69.8808 63.935 57.2208C63.825 49.9108 58.435 49.3808 56.735 54.5908C52.095 72.5908 49.805 97.7008 63.135 118.211C63.155 118.131 69.825 103.061 66.705 95.2208Z" fill="url(#paint20_linear_5_29104)"/>
<path d="M64.5649 105.04C57.5649 91.1503 58.4349 66.7403 60.9649 51.2203C59.1349 50.7503 57.5249 52.5303 56.9649 54.0903C52.1149 71.8503 49.7849 97.5003 63.1749 118.22C64.7223 116.427 65.6847 114.204 65.9331 111.848C66.1815 109.492 65.7041 107.117 64.5649 105.04Z" fill="url(#paint21_linear_5_29104)"/>
<path d="M71.6748 99.501C68.5148 89.331 70.6748 74.501 70.6748 74.501C70.6748 74.501 56.1849 84.091 59.7749 110.991C61.3849 122.991 83.0649 132.181 83.0649 132.181C83.0649 132.181 75.4548 111.621 71.6748 99.501Z" fill="url(#paint22_linear_5_29104)"/>
<path d="M65.4037 104.721C62.2437 94.5505 70.7237 74.5205 70.7237 74.5205C70.7237 74.5205 56.2337 84.1105 59.8237 111.01C61.4337 123.01 83.1137 132.201 83.1137 132.201C83.1137 132.201 69.1837 116.831 65.4037 104.721Z" fill="url(#paint23_linear_5_29104)"/>
<path d="M135.164 86.8213C135.164 86.8213 138.554 102.701 136.114 111.821C133.214 122.661 127.014 140.591 127.014 140.591C127.014 140.591 148.304 139.641 149.014 128.051C150.614 102.131 135.164 86.8213 135.164 86.8213Z" fill="url(#paint24_linear_5_29104)"/>
<path d="M135.164 86.8213C135.164 86.8213 145.314 110.401 142.874 119.501C139.974 130.341 127.014 140.571 127.014 140.571C127.014 140.571 148.304 139.621 149.014 128.031C150.614 102.131 135.164 86.8213 135.164 86.8213Z" fill="url(#paint25_linear_5_29104)"/>
<path d="M132.154 100.58C131.664 99.9103 135.074 113.72 130.704 118.98C119.824 131.22 110.134 121.2 104.914 140.29C103.537 135.349 100.965 130.822 97.4241 127.11C91.9441 121.27 80.9741 115.7 76.8441 108.73C72.0441 100.62 74.5241 89.2903 74.2341 89.5503C70.0841 93.3403 64.9541 99.8803 66.7741 112.17C69.1841 128.39 81.8541 130.62 88.5541 141.09C99.9341 158.87 96.0941 171.95 106.304 177.01C109.054 177.29 112.054 173.95 113.504 168.44C115.024 162.63 115.784 156.11 120.504 148.7C125.924 140.26 133.404 141.7 137.794 136.93C145.064 129.01 143.244 115.61 132.154 100.58Z" fill="url(#paint26_linear_5_29104)"/>
<path d="M132.155 100.591C131.635 99.9407 142.155 116.591 134.805 127.911C128.545 135.271 122.235 136.091 115.805 143.261C109.485 150.261 110.695 164.801 106.305 169.161C106.215 169.261 104.145 166.781 102.845 162.781C100.205 154.631 98.5249 142.651 91.5949 135.321C86.0849 129.511 76.1549 121.131 72.5049 113.911C65.8449 100.731 74.5549 89.2707 74.2649 89.5307C70.1149 93.3207 64.1749 100.071 66.0049 112.361C68.4049 128.581 81.8949 130.911 88.5949 141.361C99.9749 159.141 96.1349 172.221 106.345 177.281C109.105 177.571 112.105 174.281 113.545 168.711C115.065 162.911 115.825 156.391 120.545 148.971C125.975 140.531 133.445 141.971 137.835 137.211C145.085 129.291 144.945 116.291 132.155 100.591Z" fill="url(#paint27_linear_5_29104)"/>
<defs>
<linearGradient id="paint0_linear_5_29104" x1="41.1629" y1="205.157" x2="139.443" y2="22.2306" gradientUnits="userSpaceOnUse">
<stop stop-color="#34796B"/>
<stop offset="0.37" stop-color="#33776B"/>
<stop offset="0.55" stop-color="#306F6B"/>
<stop offset="0.69" stop-color="#2B626B"/>
<stop offset="0.82" stop-color="#244F6B"/>
<stop offset="0.92" stop-color="#1A376B"/>
<stop offset="1" stop-color="#11206B"/>
</linearGradient>
<linearGradient id="paint1_linear_5_29104" x1="67.4017" y1="6.84347" x2="130.238" y2="215.647" gradientUnits="userSpaceOnUse">
<stop stop-color="#193E52"/>
<stop offset="0.19" stop-color="#1F4A58"/>
<stop offset="0.7" stop-color="#2B6564"/>
<stop offset="1" stop-color="#306F69"/>
</linearGradient>
<linearGradient id="paint2_linear_5_29104" x1="18.0431" y1="119.036" x2="175.969" y2="105.914" gradientUnits="userSpaceOnUse">
<stop stop-color="#11206B"/>
<stop offset="0.59" stop-color="#27586B"/>
<stop offset="1" stop-color="#35796B"/>
</linearGradient>
<linearGradient id="paint3_linear_5_29104" x1="169.939" y1="173.064" x2="21.513" y2="47.4028" gradientUnits="userSpaceOnUse">
<stop stop-color="#112036"/>
<stop offset="1" stop-color="#000F22"/>
</linearGradient>
<linearGradient id="paint4_linear_5_29104" x1="105.494" y1="214.683" x2="88.464" y2="9.73908" gradientUnits="userSpaceOnUse">
<stop stop-color="#35796B"/>
<stop offset="0.41" stop-color="#27586B"/>
<stop offset="1" stop-color="#11206B"/>
</linearGradient>
<linearGradient id="paint5_linear_5_29104" x1="71.6308" y1="21.283" x2="125.666" y2="200.845" gradientUnits="userSpaceOnUse">
<stop stop-color="#306F69"/>
<stop offset="0.7" stop-color="#204E59"/>
<stop offset="1" stop-color="#193E52"/>
</linearGradient>
<linearGradient id="paint6_linear_5_29104" x1="29.5052" y1="116.881" x2="167.155" y2="105.461" gradientUnits="userSpaceOnUse">
<stop stop-color="#CCEA97"/>
<stop offset="0.82" stop-color="#BEE776"/>
<stop offset="1" stop-color="#BBE66E"/>
</linearGradient>
<linearGradient id="paint7_linear_5_29104" x1="94.6437" y1="204.611" x2="98.7037" y2="19.3511" gradientUnits="userSpaceOnUse">
<stop stop-color="#BBE66E"/>
<stop offset="0.12" stop-color="#AAD86E"/>
<stop offset="0.72" stop-color="#55936C"/>
<stop offset="1" stop-color="#34786B"/>
</linearGradient>
<linearGradient id="paint8_linear_5_29104" x1="134.78" y1="131.121" x2="163.855" y2="83.2992" gradientUnits="userSpaceOnUse">
<stop stop-color="#122369"/>
<stop offset="0.51" stop-color="#193C53"/>
<stop offset="1" stop-color="#11206B"/>
</linearGradient>
<linearGradient id="paint9_linear_5_29104" x1="151.956" y1="75.3772" x2="124.992" y2="126.854" gradientUnits="userSpaceOnUse">
<stop stop-color="#122369"/>
<stop offset="0.51" stop-color="#193C53"/>
<stop offset="1" stop-color="#11206B"/>
</linearGradient>
<linearGradient id="paint10_linear_5_29104" x1="50.661" y1="114.785" x2="79.795" y2="66.8569" gradientUnits="userSpaceOnUse">
<stop stop-color="#122369"/>
<stop offset="0.51" stop-color="#193C53"/>
<stop offset="1" stop-color="#11206B"/>
</linearGradient>
<linearGradient id="paint11_linear_5_29104" x1="46.2945" y1="77.0804" x2="76.7428" y2="91.7731" gradientUnits="userSpaceOnUse">
<stop stop-color="#122369"/>
<stop offset="0.51" stop-color="#193C53"/>
<stop offset="1" stop-color="#11206B"/>
</linearGradient>
<linearGradient id="paint12_linear_5_29104" x1="55.6179" y1="102.232" x2="85.0861" y2="108.014" gradientUnits="userSpaceOnUse">
<stop stop-color="#122369"/>
<stop offset="0.51" stop-color="#193C53"/>
<stop offset="1" stop-color="#11206B"/>
</linearGradient>
<linearGradient id="paint13_linear_5_29104" x1="57.1481" y1="86.7458" x2="88.3593" y2="130.988" gradientUnits="userSpaceOnUse">
<stop stop-color="#122369"/>
<stop offset="0.51" stop-color="#193C53"/>
<stop offset="1" stop-color="#11206B"/>
</linearGradient>
<linearGradient id="paint14_linear_5_29104" x1="126.7" y1="115.882" x2="147.906" y2="120.043" gradientUnits="userSpaceOnUse">
<stop stop-color="#122369"/>
<stop offset="0.51" stop-color="#193C53"/>
<stop offset="1" stop-color="#11206B"/>
</linearGradient>
<linearGradient id="paint15_linear_5_29104" x1="117.523" y1="120.485" x2="145.541" y2="110.44" gradientUnits="userSpaceOnUse">
<stop stop-color="#122369"/>
<stop offset="0.51" stop-color="#193C53"/>
<stop offset="1" stop-color="#11206B"/>
</linearGradient>
<linearGradient id="paint16_linear_5_29104" x1="65.9568" y1="132.207" x2="141.137" y2="129.37" gradientUnits="userSpaceOnUse">
<stop stop-color="#122369"/>
<stop offset="0.51" stop-color="#193C53"/>
<stop offset="1" stop-color="#11206B"/>
</linearGradient>
<linearGradient id="paint17_linear_5_29104" x1="65.165" y1="132.212" x2="141.682" y2="129.325" gradientUnits="userSpaceOnUse">
<stop stop-color="#122369"/>
<stop offset="0.51" stop-color="#193C53"/>
<stop offset="1" stop-color="#11206B"/>
</linearGradient>
<linearGradient id="paint18_linear_5_29104" x1="138.073" y1="128.684" x2="167.151" y2="80.8524" gradientUnits="userSpaceOnUse">
<stop stop-color="#AB9BB6"/>
<stop offset="1" stop-color="#F3EDF1"/>
</linearGradient>
<linearGradient id="paint19_linear_5_29104" x1="155.239" y1="72.9271" x2="128.273" y2="124.414" gradientUnits="userSpaceOnUse">
<stop stop-color="#AB9BB6"/>
<stop offset="1" stop-color="#F3EDF1"/>
</linearGradient>
<linearGradient id="paint20_linear_5_29104" x1="53.9456" y1="112.333" x2="83.0796" y2="64.4048" gradientUnits="userSpaceOnUse">
<stop stop-color="#AB9BB6"/>
<stop offset="1" stop-color="#F3EDF1"/>
</linearGradient>
<linearGradient id="paint21_linear_5_29104" x1="49.5799" y1="74.6285" x2="80.0379" y2="89.3196" gradientUnits="userSpaceOnUse">
<stop stop-color="#AB9BB6"/>
<stop offset="1" stop-color="#F3EDF1"/>
</linearGradient>
<linearGradient id="paint22_linear_5_29104" x1="58.8927" y1="99.7775" x2="88.3609" y2="105.559" gradientUnits="userSpaceOnUse">
<stop stop-color="#AB9BB6"/>
<stop offset="1" stop-color="#F3EDF1"/>
</linearGradient>
<linearGradient id="paint23_linear_5_29104" x1="60.4323" y1="84.3047" x2="91.6455" y2="128.534" gradientUnits="userSpaceOnUse">
<stop stop-color="#AB9BB6"/>
<stop offset="1" stop-color="#F3EDF1"/>
</linearGradient>
<linearGradient id="paint24_linear_5_29104" x1="129.973" y1="113.428" x2="151.179" y2="117.588" gradientUnits="userSpaceOnUse">
<stop stop-color="#AB9BB6"/>
<stop offset="1" stop-color="#F3EDF1"/>
</linearGradient>
<linearGradient id="paint25_linear_5_29104" x1="120.816" y1="118.037" x2="148.825" y2="108" gradientUnits="userSpaceOnUse">
<stop stop-color="#AB9BB6"/>
<stop offset="1" stop-color="#F3EDF1"/>
</linearGradient>
<linearGradient id="paint26_linear_5_29104" x1="69.2411" y1="129.765" x2="144.43" y2="126.927" gradientUnits="userSpaceOnUse">
<stop stop-color="#AB9BB6"/>
<stop offset="1" stop-color="#F3EDF1"/>
</linearGradient>
<linearGradient id="paint27_linear_5_29104" x1="68.4499" y1="129.773" x2="144.967" y2="126.885" gradientUnits="userSpaceOnUse">
<stop stop-color="#AB9BB6"/>
<stop offset="1" stop-color="#F3EDF1"/>
</linearGradient>
</defs>
</svg>
