<svg xmlns="http://www.w3.org/2000/svg" fill="#0D022B" width="289" height="87" viewBox="0 0 289 87"><g fill-rule="evenodd" clip-path="url(#a)" clip-rule="evenodd"><path d="M69.7 17.26c-.35-.34-.55-.68-.55-1.15 0-.48.2-.82.55-1.16a1.96 1.96 0 012.52 0c.34.34.54.68.54 1.16 0 .47-.2.81-.54 1.15-.34.28-.82.48-1.23.48-.48.07-.95-.07-1.3-.48zm-4.36 4.69a1.77 1.77 0 01-.48-1.15c0-.48.2-.82.48-1.16a1.7 1.7 0 012.31 0c.28.34.48.68.48 1.16 0 .47-.2.81-.48 1.15-.34.28-.68.48-1.16.48-.47 0-.81-.2-1.15-.48zm-4.77 4.49a1.64 1.64 0 01-.48-1.16c0-.47.2-.81.48-1.15a1.7 1.7 0 012.32 0c.27.27.47.68.47 1.15 0 .48-.2.82-.47 1.16a1.5 1.5 0 01-1.16.48c-.48 0-.89-.2-1.16-.48zM56 31a1.45 1.45 0 01-.54-1.16c0-.48.2-.82.54-1.16a1.96 1.96 0 012.52 0c.34.28.55.68.55 1.16 0 .47-.2.88-.55 1.15-.34.34-.82.48-1.23.48-.47 0-.88-.07-1.29-.48zm-4.36 4.55c-.34-.27-.48-.68-.48-1.16 0-.47.2-.81.48-1.15a1.7 1.7 0 012.32 0c.34.27.47.68.47 1.15 0 .48-.2.89-.47 1.16-.28.34-.69.47-1.16.47-.41.07-.89-.07-1.16-.47zm-5.24 3.4c0-.48.2-.82.47-1.16a1.7 1.7 0 012.32 0c.34.34.48.68.48 1.16 0 .47-.2.81-.48 1.15-.27.27-.68.48-1.16.48-.48 0-.82-.2-1.16-.48-.34-.27-.47-.68-.47-1.15zM37.88 49a1.64 1.64 0 01-.48-1.15c0-.48.2-.82.48-1.15a1.7 1.7 0 012.31 0c.34.33.48.67.48 1.15 0 .48-.2.82-.48 1.16-.27.34-.68.47-1.15.47-.41.07-.82-.07-1.16-.47zm-4.7 4.56a1.45 1.45 0 01-.55-1.16c0-.47.2-.81.55-1.15a1.96 1.96 0 012.52 0c.34.34.54.68.54 1.15 0 .48-.2.82-.54 1.16-.34.34-.82.47-1.23.47a1.5 1.5 0 01-1.3-.47zm-4.43 4.62a1.64 1.64 0 010-2.3 1.7 1.7 0 012.32 0c.27.26.48.67.48 1.15 0 .47-.2.81-.48 1.15a1.5 1.5 0 01-1.16.48c-.48 0-.75-.2-1.16-.48zm-4.56 4.55c-.34-.27-.48-.68-.48-1.15 0-.48.2-.82.48-1.16a1.7 1.7 0 012.31 0c.27.34.48.68.48 1.16 0 .47-.2.88-.48 1.15a1.5 1.5 0 01-1.16.48c-.4 0-.88-.14-1.15-.48zm-4.7 4.56a1.45 1.45 0 01-.55-1.16c0-.47.2-.81.55-1.15.68-.61 1.77-.61 2.38 0 .34.34.55.68.55 1.15 0 .48-.2.89-.55 1.16-.34.27-.82.47-1.23.47-.47 0-.88-.13-1.15-.47zm-4.5 4.55a1.49 1.49 0 01-.48-1.15c0-.48.2-.82.48-1.16a1.7 1.7 0 012.31 0c.35.34.48.68.48 1.16 0 .47-.2.81-.48 1.15-.27.27-.68.48-1.15.48-.34.07-.75-.14-1.16-.48zm2.31-54.58c.28-.34.48-.68.48-1.15 0-.48-.2-.82-.48-1.16a1.7 1.7 0 00-2.31 0 1.5 1.5 0 00-.48 1.16c0 .47.2.81.48 1.15.27.28.68.48 1.16.48.47.07.88-.07 1.16-.48zm4.57 4.69c.34-.34.55-.68.55-1.15 0-.48-.2-.82-.55-1.16a1.96 1.96 0 00-2.52 0c-.34.34-.54.68-.54 1.16 0 .47.2.81.54 1.15.34.28.82.48 1.23.48.47-.07.95-.2 1.3-.48zm4.63 4.49c.27-.27.48-.68.48-1.16 0-.47-.2-.81-.48-1.15a1.7 1.7 0 00-2.31 0 1.6 1.6 0 00-.48 1.15c0 .48.2.82.48 1.16.34.34.68.48 1.15.48.41 0 .82-.2 1.16-.48zM31.07 31c.27-.28.48-.69.48-1.16 0-.48-.2-.82-.48-1.16a1.7 1.7 0 00-2.32 0 1.64 1.64 0 000 2.31c.34.34.68.48 1.16.48.4 0 .82-.07 1.16-.48zm4.49 4.55c.34-.27.55-.68.55-1.16 0-.47-.2-.81-.55-1.15a1.78 1.78 0 00-2.38 0c-.34.27-.55.68-.55 1.15 0 .48.2.89.55 1.16.34.34.82.47 1.22.47.41.07.89-.07 1.16-.47zm5.11 3.4c0-.48-.2-.82-.48-1.16a1.7 1.7 0 00-2.31 0 1.5 1.5 0 00-.48 1.16c0 .47.2.81.48 1.15.27.27.68.48 1.16.48.47 0 .81-.2 1.15-.48.34-.27.48-.68.48-1.15zm4.09 5.77c.34-.34.48-.68.48-1.15 0-.48-.2-.82-.48-1.16a1.7 1.7 0 00-2.31 0c-.35.34-.48.68-.48 1.16 0 .47.2.81.48 1.15a1.65 1.65 0 002.31 0zM49.33 49c.34-.27.54-.67.54-1.15 0-.48-.2-.82-.54-1.15-.69-.62-1.78-.62-2.39 0-.34.33-.54.67-.54 1.15 0 .48.2.82.54 1.16.34.34.82.47 1.23.47.34.07.82-.07 1.16-.47zm4.63 4.56c.27-.27.47-.68.47-1.16 0-.47-.2-.81-.47-1.15a1.7 1.7 0 00-2.32 0c-.27.34-.48.68-.48 1.15 0 .48.2.82.48 1.16.34.34.68.47 1.16.47.34.07.81-.13 1.16-.47zm4.56 4.62a1.64 1.64 0 000-2.3 1.7 1.7 0 00-2.31 0c-.28.26-.48.67-.48 1.15 0 .47.2.81.48 1.15.34.34.68.48 1.15.48.48 0 .82-.2 1.16-.48zm4.29 4.55c.35-.27.48-.68.48-1.15 0-.48-.2-.82-.48-1.16a1.7 1.7 0 00-2.31 0c-.27.34-.48.68-.48 1.16 0 .47.2.88.48 1.15.34.34.68.48 1.16.48.4 0 .88-.14 1.15-.48zm4.84 4.56c.34-.27.48-.68.48-1.16 0-.47-.2-.81-.48-1.15a1.7 1.7 0 00-2.31 0 1.5 1.5 0 00-.48 1.15 1.64 1.64 0 001.63 1.64c.48 0 .89-.14 1.16-.48zm4.57 4.55c.34-.34.54-.68.54-1.15 0-.48-.2-.82-.54-1.16-.68-.61-1.77-.61-2.39 0-.34.34-.54.68-.54 1.16 0 .47.2.81.54 1.15.34.27.82.48 1.23.48.34.07.75-.14 1.16-.48zM28.14 18.56A27.8 27.8 0 0143.54 14a27.9 27.9 0 0115.4 4.56l9.8-9.8C61.04 2.93 52.74 0 43.54 0A40 40 0 0018.4 8.77l9.74 9.79zm-9.81 40.17a27.01 27.01 0 01-4.64-15.23c0-5.5 1.5-10.6 4.64-15.22l-9.75-9.72a40.06 40.06 0 00-8.58 25c0 9.12 2.86 17.48 8.65 25.09l9.68-9.92zm40.53 9.71a27.42 27.42 0 01-15.26 4.83c-5.65 0-10.83-1.5-15.47-4.76l-9.8 9.72c7.56 5.92 16 8.84 25.27 8.77 9.2-.07 17.5-3.06 25-8.77l-9.74-9.79zm9.61-40.3a26.53 26.53 0 014.63 15.5 27.27 27.27 0 01-4.63 14.95l9.8 9.72c5.8-7.48 8.8-15.77 8.8-24.88.07-9.24-2.86-17.67-8.8-25.21l-9.8 9.92zM78.69 71.5a6.9 6.9 0 016.88 6.87 6.9 6.9 0 01-6.88 6.86 6.85 6.85 0 110-13.73zm-70.18 0a6.84 6.84 0 016.82 6.87 6.88 6.88 0 01-6.82 6.86 6.84 6.84 0 01-6.8-6.86c0-3.8 3.06-6.87 6.8-6.87zm70.31-70a6.84 6.84 0 016.82 6.86c0 3.8-3.07 6.86-6.82 6.86a6.84 6.84 0 01-6.8-6.86c0-3.8 3.06-6.86 6.8-6.86zm-70.44 0a6.88 6.88 0 016.88 6.8 6.88 6.88 0 01-13.76 0c0-3.75 3.07-6.8 6.88-6.8z"></path></g><path d="M124.82 63.9a14.78 14.78 0 01-11.58-4.92 16.47 16.47 0 01-3.12-5.4 21.3 21.3 0 01.06-13.2c.76-2.08 1.8-3.88 3.12-5.4a14.57 14.57 0 014.86-3.66 15.08 15.08 0 016.36-1.32c2.4 0 4.52.44 6.36 1.32 1.84.88 3.4 2.1 4.68 3.66a15.7 15.7 0 012.94 5.76 25.77 25.77 0 011.02 7.5H114.8c.12 1.56.42 3.02.9 4.38a11.28 11.28 0 001.98 3.54c.84 1 1.86 1.78 3.06 2.34 1.2.56 2.58.84 4.14.84 2.24 0 4.08-.48 5.52-1.44a7.35 7.35 0 003-4.08h5.46c-.72 3-2.32 5.44-4.8 7.32-2.44 1.84-5.52 2.76-9.24 2.76zm-.3-29.58a9.02 9.02 0 00-6.72 2.82c-.8.88-1.44 1.92-1.92 3.12-.48 1.2-.8 2.52-.96 3.96h18.66c-.16-3.12-1.02-5.54-2.58-7.26-1.52-1.76-3.68-2.64-6.48-2.64zm22.33-15.96h5.58V63h-5.58V18.36zm20.13 18.24h.18c1-1.88 2.3-3.38 3.9-4.5a9.35 9.35 0 015.64-1.74c.44 0 .8.04 1.08.12.32.04.64.12.96.24V36h-.18a6.7 6.7 0 00-2.28-.3 8.9 8.9 0 00-3.54.72 8.51 8.51 0 00-2.94 1.92 9.76 9.76 0 00-2.04 3.06c-.48 1.2-.72 2.56-.72 4.08V63h-5.58V30.78h5.52v5.82zm31.28 27.3a14.78 14.78 0 01-11.52-4.92 17.35 17.35 0 01-3.18-5.4 20.22 20.22 0 01-1.07-6.66c0-2.32.35-4.5 1.07-6.54a16.48 16.48 0 013.19-5.4c1.35-1.56 3-2.78 4.91-3.66a15.94 15.94 0 016.6-1.32c2.45 0 4.63.44 6.55 1.32 1.91.88 3.56 2.1 4.91 3.66a15.69 15.69 0 013.13 5.4 19.5 19.5 0 011.08 6.54c0 2.36-.37 4.58-1.09 6.66a16.47 16.47 0 01-3.12 5.4 14.78 14.78 0 01-11.46 4.92zm-.05-4.56a9.3 9.3 0 004.31-.96 8.88 8.88 0 003.19-2.64 11.37 11.37 0 001.85-3.9c.44-1.52.66-3.16.66-4.92 0-1.72-.22-3.34-.66-4.86a11.32 11.32 0 00-1.85-3.96 8.64 8.64 0 00-3.19-2.7 9.3 9.3 0 00-4.31-.96 9.7 9.7 0 00-4.39.96 8.79 8.79 0 00-3.11 2.7 12.17 12.17 0 00-1.93 3.96c-.4 1.52-.6 3.14-.6 4.86 0 1.76.2 3.4.6 4.92a12.25 12.25 0 001.93 3.9 9 9 0 003.11 2.64 9.7 9.7 0 004.39.96zm28.36-24h.18a13.43 13.43 0 014.2-3.9 11.7 11.7 0 016-1.44c3.4 0 6.06.9 7.98 2.7 1.92 1.8 2.88 4.4 2.88 7.8V63h-5.52V41.16c0-2.08-.64-3.68-1.92-4.8-1.24-1.12-2.96-1.68-5.16-1.68-1.24 0-2.4.22-3.48.66-1.04.4-1.94.98-2.7 1.74a8.25 8.25 0 00-1.8 2.76c-.4 1.08-.6 2.26-.6 3.54V63h-5.58V30.78h5.52v4.56zm42.44 28.62c-2.16 0-4.12-.4-5.88-1.2a12.91 12.91 0 01-4.5-3.36 15.9 15.9 0 01-2.88-5.34 24.44 24.44 0 01-.96-7.08c0-2.64.36-5 1.08-7.08.72-2.12 1.7-3.9 2.94-5.34a12.67 12.67 0 014.5-3.36c1.72-.8 3.58-1.2 5.58-1.2 2.28 0 4.28.52 6 1.56a11.9 11.9 0 014.2 4.14h.12c-.08-.72-.14-1.62-.18-2.7V18.36h5.58V63h-5.52v-4.62h-.12a11.57 11.57 0 01-4.08 4.14c-1.64.96-3.6 1.44-5.88 1.44zm.42-4.62c1.72 0 3.2-.3 4.44-.9a8.73 8.73 0 003.06-2.58 10.59 10.59 0 001.8-3.9c.4-1.52.6-3.16.6-4.92 0-1.8-.22-3.46-.66-4.98a10.7 10.7 0 00-1.86-3.9 8.46 8.46 0 00-3.12-2.58 9.66 9.66 0 00-4.26-.9 7.89 7.89 0 00-6.72 3.54 12.9 12.9 0 00-1.68 3.9 21.32 21.32 0 00-.54 4.92c0 1.76.18 3.4.54 4.92.4 1.48.96 2.78 1.68 3.9a8.68 8.68 0 002.82 2.58c1.12.6 2.42.9 3.9.9z"></path><defs><clipPath id="a"><path fill="#fff" d="M0 0h87v87H0z"></path></clipPath></defs></svg>