<svg xmlns="http://www.w3.org/2000/svg" fill="currentColor" height="86" viewBox="0 0 392 86"><path fill-rule="evenodd" d="M0 30.723l47.225 55.276H72.97L0 2.605v28.118zM0 52.12V86h28.667L0 52.12zM15.637.03L31.706 18.22h8.723s6.416-.307 8.57 6.938c1.917 6.45-1.99 10.79-1.99 10.79l11.937 13.567s15.46-13.946 5.426-34.928C57.213-.384 42.019 0 42.019 0L15.637.029z" clip-rule="evenodd"></path><path d="M101.696 66c-.372 0-.689-.13-.949-.39a1.291 1.291 0 01-.391-.95V28.304c0-.41.13-.744.391-1.005.26-.26.577-.39.949-.39h14.464c4.505 0 8.061 1.042 10.667 3.127s3.909 5.119 3.909 9.102c0 2.755-.689 5.045-2.066 6.87-1.341 1.824-3.146 3.145-5.417 3.964l8.153 14.24c.112.224.168.43.168.615 0 .335-.131.615-.391.838a1.073 1.073 0 01-.782.335h-5.082c-.633 0-1.117-.168-1.452-.503a4.608 4.608 0 01-.782-1.005l-7.204-13.235h-7.763V64.66c0 .372-.13.689-.39.95-.224.26-.54.39-.95.39h-5.082zm6.422-21.054h7.875c2.271 0 3.965-.502 5.082-1.508 1.117-1.042 1.675-2.494 1.675-4.356s-.558-3.313-1.675-4.355c-1.08-1.08-2.774-1.62-5.082-1.62h-7.875v11.84zm34.784 21.613c-1.936 0-3.686-.373-5.25-1.117-1.563-.782-2.81-1.806-3.741-3.072a7.526 7.526 0 01-1.341-4.356c0-2.606 1.043-4.672 3.128-6.199 2.122-1.563 4.914-2.606 8.377-3.127l7.65-1.117v-1.173c0-1.563-.39-2.773-1.172-3.63-.782-.856-2.122-1.284-4.021-1.284-1.34 0-2.439.28-3.295.838a4.866 4.866 0 00-1.843 2.122c-.298.484-.726.726-1.284.726h-4.412c-.41 0-.726-.112-.95-.335-.186-.224-.279-.522-.279-.894.037-.596.279-1.322.726-2.178.447-.856 1.154-1.675 2.122-2.457.968-.82 2.216-1.508 3.742-2.066 1.526-.559 3.369-.838 5.529-.838 2.345 0 4.318.298 5.919.893 1.638.559 2.941 1.322 3.909 2.29a8.787 8.787 0 012.123 3.407c.446 1.303.67 2.68.67 4.132V64.66c0 .372-.131.689-.391.95-.261.26-.577.39-.95.39h-4.523c-.41 0-.745-.13-1.005-.39a1.406 1.406 0 01-.335-.95v-2.178c-.484.707-1.136 1.377-1.955 2.01-.819.596-1.824 1.099-3.016 1.508-1.154.372-2.531.559-4.132.559zm1.899-5.306c1.303 0 2.475-.28 3.518-.837 1.08-.559 1.917-1.415 2.513-2.57.633-1.19.949-2.68.949-4.467v-1.173l-5.584.894c-2.197.335-3.835.875-4.915 1.62-1.079.744-1.619 1.656-1.619 2.736 0 .819.242 1.526.726 2.122.521.558 1.173.986 1.954 1.284.782.26 1.601.391 2.458.391zM176.432 66c-2.234 0-4.114-.39-5.641-1.173-1.526-.782-2.662-1.936-3.406-3.462-.745-1.564-1.117-3.5-1.117-5.808V42.88h-4.412c-.372 0-.689-.13-.949-.39a1.291 1.291 0 01-.391-.95V38.3c0-.372.13-.688.391-.949.26-.26.577-.39.949-.39h4.412V27.69c0-.372.112-.689.335-.95.261-.26.596-.39 1.005-.39h4.524c.372 0 .688.13.949.39.261.261.391.578.391.95v9.27h6.981c.372 0 .688.13.949.391.261.26.391.577.391.95v3.239c0 .372-.13.688-.391.95-.261.26-.577.39-.949.39h-6.981v12.118c0 1.527.261 2.718.782 3.575.558.856 1.508 1.284 2.848 1.284h3.853c.373 0 .689.13.95.39.26.261.391.578.391.95v3.463c0 .372-.131.688-.391.95-.261.26-.577.39-.95.39h-4.523zm9.422 0c-.373 0-.689-.13-.95-.39a1.295 1.295 0 01-.391-.95V27.69c0-.372.131-.689.391-.95.261-.26.577-.39.95-.39h4.97c.409 0 .726.13.949.39.261.261.391.578.391.95v12.733c1.005-1.192 2.234-2.16 3.686-2.904 1.452-.745 3.239-1.117 5.361-1.117 2.271 0 4.244.521 5.92 1.564 1.712 1.005 3.034 2.438 3.965 4.3.93 1.861 1.396 4.095 1.396 6.701V64.66c0 .372-.13.689-.391.95-.261.26-.577.39-.949.39h-5.027c-.372 0-.688-.13-.949-.39a1.291 1.291 0 01-.391-.95V49.302c0-2.16-.54-3.853-1.619-5.082-1.043-1.228-2.569-1.843-4.58-1.843-1.936 0-3.499.615-4.691 1.843-1.154 1.229-1.731 2.923-1.731 5.082V64.66c0 .372-.13.689-.391.95-.223.26-.54.39-.949.39h-4.97zm43.442.558c-4.132 0-7.409-1.19-9.829-3.574-2.42-2.382-3.723-5.77-3.909-10.164a14.512 14.512 0 01-.056-1.396c0-.595.019-1.06.056-1.396.149-2.792.782-5.212 1.899-7.26 1.154-2.047 2.736-3.611 4.747-4.69 2.01-1.118 4.374-1.676 7.092-1.676 3.016 0 5.547.633 7.595 1.899 2.048 1.228 3.593 2.96 4.635 5.193 1.043 2.197 1.564 4.747 1.564 7.651v1.173c0 .372-.13.689-.391.95-.261.26-.596.39-1.005.39h-18.541v.447c.037 1.303.279 2.513.726 3.63.484 1.08 1.173 1.955 2.066 2.625.931.67 2.029 1.005 3.295 1.005 1.043 0 1.918-.15 2.625-.447.707-.335 1.284-.707 1.731-1.117.447-.41.763-.744.95-1.005.335-.447.595-.707.781-.782.224-.112.54-.167.95-.167h4.802c.373 0 .671.111.894.335a.912.912 0 01.335.837c-.037.596-.354 1.322-.949 2.178-.559.857-1.378 1.694-2.458 2.513-1.079.82-2.438 1.508-4.076 2.067-1.601.52-3.444.782-5.529.782zm-6.143-17.59h12.342V48.8c0-1.452-.242-2.718-.726-3.798s-1.191-1.936-2.122-2.569c-.931-.633-2.048-.95-3.351-.95s-2.42.317-3.351.95c-.93.633-1.638 1.49-2.122 2.57-.447 1.079-.67 2.345-.67 3.797v.167zM247.566 66c-.372 0-.689-.13-.95-.39-.26-.262-.39-.578-.39-.95V38.357c0-.41.13-.745.39-1.006.261-.26.578-.39.95-.39h4.523c.373 0 .689.13.95.39.298.26.446.596.446 1.005v2.29a8.423 8.423 0 013.295-2.736c1.378-.633 2.96-.95 4.747-.95h2.29c.409 0 .726.13.949.391.261.26.391.577.391.95v4.02c0 .373-.13.69-.391.95-.223.26-.54.39-.949.39h-4.356c-1.787 0-3.183.503-4.189 1.509-.967 1.005-1.451 2.382-1.451 4.132V64.66c0 .372-.131.688-.391.95-.261.26-.596.39-1.006.39h-4.858zm29.934 0c-.372 0-.688-.13-.949-.39a1.291 1.291 0 01-.391-.95V28.249c0-.373.13-.69.391-.95s.577-.39.949-.39h5.194c.372 0 .689.13.949.39.261.26.391.577.391.95v31.105h17.703c.41 0 .745.13 1.005.391.261.26.391.596.391 1.006v3.909c0 .372-.13.689-.391.95-.26.26-.595.39-1.005.39H277.5zm36.025.558c-1.936 0-3.686-.372-5.25-1.117-1.563-.781-2.81-1.805-3.741-3.071-.894-1.303-1.34-2.755-1.34-4.356 0-2.606 1.042-4.672 3.127-6.199 2.122-1.563 4.914-2.606 8.377-3.127l7.651-1.117v-1.173c0-1.563-.391-2.773-1.173-3.63-.782-.856-2.122-1.284-4.021-1.284-1.34 0-2.439.28-3.295.837a4.866 4.866 0 00-1.843 2.123c-.298.484-.726.726-1.284.726h-4.412c-.41 0-.726-.112-.949-.335-.187-.224-.28-.522-.28-.894.038-.596.28-1.322.726-2.178.447-.856 1.154-1.675 2.122-2.457.968-.82 2.216-1.508 3.742-2.066 1.526-.559 3.369-.838 5.529-.838 2.345 0 4.318.298 5.919.893 1.639.559 2.942 1.322 3.91 2.29a8.785 8.785 0 012.122 3.407c.446 1.303.67 2.68.67 4.132V64.66c0 .372-.13.688-.391.95-.261.26-.577.39-.949.39h-4.524c-.409 0-.745-.13-1.005-.39a1.406 1.406 0 01-.335-.95v-2.178c-.484.707-1.136 1.377-1.955 2.01-.819.596-1.824 1.098-3.015 1.508-1.155.372-2.532.558-4.133.558zm1.899-5.305c1.303 0 2.476-.28 3.518-.838 1.08-.558 1.917-1.414 2.513-2.568.633-1.192.949-2.681.949-4.468v-1.173l-5.584.894c-2.197.335-3.835.875-4.915 1.62-1.079.744-1.619 1.656-1.619 2.736 0 .819.242 1.526.726 2.122.521.558 1.173.986 1.955 1.284.781.26 1.6.391 2.457.391zm34.863 5.305c-2.159 0-3.965-.372-5.417-1.117-1.414-.744-2.587-1.693-3.518-2.848v2.067c0 .372-.13.688-.391.95-.223.26-.54.39-.949.39H335.6c-.372 0-.689-.13-.949-.39a1.291 1.291 0 01-.391-.95V27.69c0-.372.13-.689.391-.95.26-.26.577-.39.949-.39h4.747c.409 0 .726.13.949.39.261.261.391.578.391.95v12.398c.931-1.08 2.085-1.955 3.463-2.625 1.414-.707 3.127-1.061 5.137-1.061 1.974 0 3.686.335 5.138 1.005a9.753 9.753 0 013.63 2.848c1.005 1.192 1.769 2.588 2.29 4.189.521 1.6.8 3.332.837 5.193.038.67.056 1.285.056 1.843 0 .521-.018 1.117-.056 1.787-.074 1.936-.372 3.723-.893 5.361-.521 1.601-1.266 2.997-2.234 4.189-.968 1.191-2.178 2.122-3.63 2.792-1.452.633-3.164.95-5.138.95zm-2.066-5.975c1.601 0 2.848-.335 3.742-1.005.893-.708 1.526-1.62 1.899-2.737.409-1.117.651-2.345.725-3.686a24.977 24.977 0 000-3.35c-.074-1.34-.316-2.57-.725-3.686-.373-1.117-1.006-2.01-1.899-2.68-.894-.708-2.141-1.062-3.742-1.062-1.489 0-2.699.335-3.63 1.006a6.47 6.47 0 00-2.122 2.569 7.86 7.86 0 00-.782 3.183c-.037.67-.056 1.396-.056 2.178 0 .744.019 1.452.056 2.122.075 1.154.317 2.29.726 3.406a6.374 6.374 0 002.066 2.68c.968.708 2.216 1.062 3.742 1.062zm28.441 5.976c-2.234 0-4.151-.261-5.752-.782-1.564-.522-2.848-1.173-3.853-1.955-1.005-.782-1.75-1.564-2.234-2.345-.484-.782-.745-1.434-.782-1.955-.037-.41.075-.726.335-.95.298-.26.614-.39.95-.39h4.411c.149 0 .28.018.391.056.112.037.261.148.447.335.484.41.987.837 1.508 1.284.558.447 1.21.838 1.954 1.173.745.298 1.676.447 2.793.447 1.452 0 2.662-.28 3.63-.838 1.005-.596 1.507-1.433 1.507-2.513 0-.782-.223-1.415-.67-1.899-.409-.484-1.191-.912-2.345-1.284-1.154-.41-2.792-.838-4.915-1.285-2.084-.484-3.816-1.098-5.193-1.843-1.378-.744-2.402-1.675-3.072-2.792-.67-1.117-1.005-2.42-1.005-3.91 0-1.451.428-2.829 1.285-4.132.893-1.34 2.196-2.438 3.909-3.295 1.75-.856 3.909-1.284 6.478-1.284 2.01 0 3.76.26 5.249.782 1.489.484 2.718 1.098 3.686 1.843 1.005.744 1.768 1.508 2.29 2.29.521.744.8 1.396.837 1.954.038.41-.074.745-.335 1.005-.26.224-.558.335-.893.335h-4.133c-.186 0-.353-.037-.502-.111a2.938 2.938 0 01-.447-.28c-.41-.372-.856-.763-1.34-1.172-.484-.41-1.08-.764-1.788-1.061-.67-.336-1.563-.503-2.68-.503-1.415 0-2.495.316-3.239.95-.745.595-1.117 1.358-1.117 2.289 0 .633.168 1.191.503 1.675.372.447 1.098.875 2.178 1.285 1.079.41 2.717.837 4.914 1.284 2.494.447 4.468 1.117 5.92 2.01 1.489.857 2.531 1.862 3.127 3.016.633 1.117.949 2.364.949 3.742a7.346 7.346 0 01-1.508 4.523c-.968 1.34-2.42 2.402-4.355 3.184-1.899.744-4.263 1.117-7.093 1.117z"></path></svg>