<svg width="269" height="88" viewBox="0 0 269 88" fill="none" xmlns="http://www.w3.org/2000/svg">
<path d="M111.62 18.36H119.54L128.84 42.6C129.28 43.84 129.76 45.26 130.28 46.86C130.84 48.46 131.34 49.98 131.78 51.42C132.3 53.1 132.82 54.82 133.34 56.58H133.46C134.02 54.82 134.56 53.1 135.08 51.42C135.52 49.98 136 48.46 136.52 46.86C137.08 45.26 137.58 43.84 138.02 42.6L147.14 18.36H155.3V63H149.42V36C149.42 35 149.42 33.86 149.42 32.58C149.46 31.26 149.52 30 149.6 28.8C149.64 27.44 149.7 26.02 149.78 24.54H149.66L148.58 28.32C148.26 29.36 147.92 30.48 147.56 31.68C147.2 32.84 146.86 33.86 146.54 34.74L135.68 63H130.88L120.02 34.74C119.7 33.86 119.36 32.84 119 31.68C118.64 30.48 118.3 29.36 117.98 28.32L116.9 24.54H116.78C116.82 26.02 116.88 27.44 116.96 28.8C117 30 117.04 31.26 117.08 32.58C117.12 33.86 117.14 35 117.14 36V63H111.62V18.36ZM174.492 63.66C172.972 63.66 171.532 63.46 170.172 63.06C168.852 62.7 167.692 62.14 166.692 61.38C165.732 60.62 164.972 59.68 164.412 58.56C163.852 57.4 163.572 56.04 163.572 54.48C163.572 52.6 163.892 51.06 164.532 49.86C165.212 48.66 166.152 47.7 167.352 46.98C168.592 46.26 170.052 45.7 171.732 45.3C173.452 44.9 175.352 44.58 177.432 44.34C178.632 44.22 179.712 44.06 180.672 43.86C181.632 43.66 182.452 43.4 183.132 43.08C183.812 42.72 184.332 42.28 184.692 41.76C185.052 41.24 185.232 40.56 185.232 39.72C185.232 37.96 184.632 36.58 183.432 35.58C182.272 34.58 180.572 34.08 178.332 34.08C175.772 34.08 173.852 34.64 172.572 35.76C171.332 36.88 170.672 38.4 170.592 40.32H165.192C165.232 38.96 165.532 37.66 166.092 36.42C166.652 35.18 167.472 34.08 168.552 33.12C169.632 32.16 170.972 31.4 172.572 30.84C174.212 30.28 176.112 30 178.272 30C179.792 30 181.212 30.14 182.532 30.42C183.852 30.7 185.032 31.14 186.072 31.74C187.432 32.54 188.492 33.66 189.252 35.1C190.012 36.54 190.392 38.34 190.392 40.5V55.56C190.392 56.84 190.612 57.8 191.052 58.44C191.492 59.08 192.412 59.24 193.812 58.92H194.052V62.82C193.652 62.94 193.212 63.04 192.732 63.12C192.292 63.24 191.732 63.3 191.052 63.3C189.332 63.3 188.032 62.9 187.152 62.1C186.272 61.26 185.672 59.98 185.352 58.26H185.292C184.772 58.98 184.172 59.66 183.492 60.3C182.812 60.94 182.032 61.52 181.152 62.04C180.272 62.52 179.272 62.9 178.152 63.18C177.072 63.5 175.852 63.66 174.492 63.66ZM175.872 59.58C177.472 59.58 178.852 59.32 180.012 58.8C181.212 58.24 182.192 57.56 182.952 56.76C183.752 55.92 184.332 55 184.692 54C185.092 53 185.292 52.04 185.292 51.12V45.84C184.492 46.36 183.432 46.82 182.112 47.22C180.832 47.58 179.532 47.88 178.212 48.12C176.892 48.36 175.692 48.62 174.612 48.9C173.532 49.14 172.612 49.5 171.852 49.98C171.092 50.42 170.492 51 170.052 51.72C169.652 52.4 169.452 53.3 169.452 54.42C169.452 55.46 169.632 56.32 169.992 57C170.352 57.64 170.832 58.16 171.432 58.56C172.032 58.96 172.712 59.24 173.472 59.4C174.272 59.52 175.072 59.58 175.872 59.58ZM199.663 18.36H205.483V24.84H199.663V18.36ZM199.783 30.78H205.363V63H199.783V30.78ZM223.825 63.66C222.305 63.66 220.865 63.46 219.505 63.06C218.185 62.7 217.025 62.14 216.025 61.38C215.065 60.62 214.305 59.68 213.745 58.56C213.185 57.4 212.905 56.04 212.905 54.48C212.905 52.6 213.225 51.06 213.865 49.86C214.545 48.66 215.485 47.7 216.685 46.98C217.925 46.26 219.385 45.7 221.065 45.3C222.785 44.9 224.685 44.58 226.765 44.34C227.965 44.22 229.045 44.06 230.005 43.86C230.965 43.66 231.785 43.4 232.465 43.08C233.145 42.72 233.665 42.28 234.025 41.76C234.385 41.24 234.565 40.56 234.565 39.72C234.565 37.96 233.965 36.58 232.765 35.58C231.605 34.58 229.905 34.08 227.665 34.08C225.105 34.08 223.185 34.64 221.905 35.76C220.665 36.88 220.005 38.4 219.925 40.32H214.525C214.565 38.96 214.865 37.66 215.425 36.42C215.985 35.18 216.805 34.08 217.885 33.12C218.965 32.16 220.305 31.4 221.905 30.84C223.545 30.28 225.445 30 227.605 30C229.125 30 230.545 30.14 231.865 30.42C233.185 30.7 234.365 31.14 235.405 31.74C236.765 32.54 237.825 33.66 238.585 35.1C239.345 36.54 239.725 38.34 239.725 40.5V55.56C239.725 56.84 239.945 57.8 240.385 58.44C240.825 59.08 241.745 59.24 243.145 58.92H243.385V62.82C242.985 62.94 242.545 63.04 242.065 63.12C241.625 63.24 241.065 63.3 240.385 63.3C238.665 63.3 237.365 62.9 236.485 62.1C235.605 61.26 235.005 59.98 234.685 58.26H234.625C234.105 58.98 233.505 59.66 232.825 60.3C232.145 60.94 231.365 61.52 230.485 62.04C229.605 62.52 228.605 62.9 227.485 63.18C226.405 63.5 225.185 63.66 223.825 63.66ZM225.205 59.58C226.805 59.58 228.185 59.32 229.345 58.8C230.545 58.24 231.525 57.56 232.285 56.76C233.085 55.92 233.665 55 234.025 54C234.425 53 234.625 52.04 234.625 51.12V45.84C233.825 46.36 232.765 46.82 231.445 47.22C230.165 47.58 228.865 47.88 227.545 48.12C226.225 48.36 225.025 48.62 223.945 48.9C222.865 49.14 221.945 49.5 221.185 49.98C220.425 50.42 219.825 51 219.385 51.72C218.985 52.4 218.785 53.3 218.785 54.42C218.785 55.46 218.965 56.32 219.325 57C219.685 57.64 220.165 58.16 220.765 58.56C221.365 58.96 222.045 59.24 222.805 59.4C223.605 59.52 224.405 59.58 225.205 59.58ZM254.637 36.6H254.817C255.817 34.72 257.117 33.22 258.717 32.1C260.317 30.94 262.197 30.36 264.357 30.36C264.797 30.36 265.157 30.4 265.437 30.48C265.757 30.52 266.077 30.6 266.397 30.72V36H266.217C265.817 35.88 265.457 35.8 265.137 35.76C264.817 35.72 264.417 35.7 263.937 35.7C262.697 35.7 261.517 35.94 260.397 36.42C259.277 36.86 258.297 37.5 257.457 38.34C256.617 39.18 255.937 40.2 255.417 41.4C254.937 42.6 254.697 43.96 254.697 45.48V63H249.117V30.78H254.637V36.6Z" fill="#1A45C2"/>
<path d="M0 1.27539V88.0001L43.5 44.5001L0 1.27539Z" fill="url(#paint0_linear_896_13624)"/>
<path fill-rule="evenodd" clip-rule="evenodd" d="M43.5 87.7247L21.75 66.25L87 1V44.7753L43.5 87.7247Z" fill="#1A45C2"/>
<path d="M65.25 66.25L87 88V44.5L65.25 66.25Z" fill="url(#paint1_linear_896_13624)"/>
<defs>
<linearGradient id="paint0_linear_896_13624" x1="0" y1="44.6377" x2="43.5" y2="44.6377" gradientUnits="userSpaceOnUse">
<stop stop-color="#1A45C2"/>
<stop offset="1" stop-color="#01209D"/>
</linearGradient>
<linearGradient id="paint1_linear_896_13624" x1="65.25" y1="66.25" x2="87" y2="66.25" gradientUnits="userSpaceOnUse">
<stop stop-color="#01209D"/>
<stop offset="1" stop-color="#1A45C2"/>
</linearGradient>
</defs>
</svg>
